<?xml version="1.0" standalone="no"?>
<!DOCTYPE svg PUBLIC "-//W3C//DTD SVG 20010904//EN"
 "http://www.w3.org/TR/2001/REC-SVG-20010904/DTD/svg10.dtd">
<svg version="1.0" xmlns="http://www.w3.org/2000/svg"
 width="612.000000pt" height="408.000000pt" viewBox="0 0 612.000000 408.000000"
 preserveAspectRatio="xMidYMid meet">

<g transform="translate(0.000000,408.000000) scale(0.100000,-0.100000)"
fill="#000000" stroke="none">
<path d="M1513 3460 c-136 -54 -278 -253 -357 -500 -46 -142 -59 -228 -54
-341 6 -135 46 -201 147 -246 56 -25 176 -23 227 4 50 27 140 123 190 203 34
56 54 68 54 34 0 -8 9 -33 20 -54 39 -76 142 -117 225 -90 74 25 192 181 220
292 4 17 26 41 57 63 l50 36 -9 -88 c-14 -149 -10 -181 29 -214 72 -62 97 -50
126 62 37 138 133 357 206 474 32 50 32 46 2 -73 -40 -157 -57 -266 -54 -338
3 -65 5 -69 37 -91 41 -27 72 -29 93 -5 9 9 39 73 68 141 75 177 163 341 176
328 3 -2 -4 -38 -15 -78 -32 -121 -44 -220 -32 -283 19 -105 55 -146 130 -154
56 -5 72 9 44 40 -30 34 -30 174 1 342 34 182 34 200 -4 238 -27 26 -36 30
-67 25 -48 -8 -107 -66 -164 -162 -24 -41 -47 -75 -50 -75 -3 0 0 23 7 52 45
173 18 268 -77 268 -45 0 -139 -112 -215 -259 -21 -40 -40 -68 -42 -63 -2 6 4
38 13 72 9 34 17 84 17 111 2 57 -17 78 -70 79 -30 0 -35 -4 -53 -47 -11 -26
-29 -77 -41 -113 -21 -67 -55 -112 -107 -143 l-29 -17 5 57 c10 115 -30 188
-118 216 -80 26 -111 22 -165 -20 -115 -93 -146 -136 -190 -267 -40 -117 -137
-261 -236 -352 -144 -131 -204 -101 -202 101 2 170 69 398 161 550 52 86 141
185 182 202 32 14 36 13 49 -4 27 -37 -24 -167 -100 -249 -50 -55 -46 -74 17
-74 38 0 51 6 85 36 59 54 103 150 104 229 1 49 -4 70 -20 92 -48 65 -176 90
-271 53z m-139 -181 c-27 -34 -74 -115 -106 -178 -32 -64 -58 -114 -58 -111 0
14 46 123 76 180 35 66 123 185 131 176 2 -2 -17 -32 -43 -67z m80 -66 c-30
-47 -54 -91 -54 -96 0 -6 -2 -8 -5 -5 -14 13 90 188 111 188 1 0 -22 -39 -52
-87z m1235 -215 c-17 -68 -36 -127 -42 -133 -6 -7 -7 -3 -4 10 3 11 11 45 17
75 19 89 52 196 57 183 2 -6 -10 -67 -28 -135z m-579 8 c0 -29 -5 -78 -11
-109 -10 -50 -15 -57 -35 -57 -72 0 -84 171 -17 238 l26 26 18 -23 c13 -16 19
-39 19 -75z m-272 -13 c-27 -47 -28 -49 -28 -37 0 11 38 74 45 74 2 0 -5 -17
-17 -37z m932 -68 c-6 -27 -15 -55 -21 -64 -9 -13 -9 -12 -4 4 3 11 11 42 17
68 5 27 12 46 14 44 3 -2 0 -26 -6 -52z m-449 -175 c-11 -69 -19 -99 -20 -75
-1 66 28 238 36 205 1 -8 -6 -67 -16 -130z m-378 93 c18 -20 51 -45 75 -55 23
-10 42 -24 42 -30 0 -5 -15 -38 -32 -71 -41 -76 -100 -140 -125 -135 -27 5
-44 64 -37 133 6 65 33 195 40 195 3 0 19 -17 37 -37z"/>
<path d="M4502 3460 c-24 -11 -75 -50 -112 -88 -59 -59 -71 -77 -89 -136 -11
-37 -19 -72 -16 -77 15 -23 -92 -186 -184 -283 -69 -71 -123 -106 -164 -106
-38 0 -48 21 -45 90 l3 62 41 3 c55 4 97 27 154 84 124 124 154 274 70 345
-90 75 -244 20 -335 -121 -22 -34 -49 -76 -60 -94 -19 -32 -98 -99 -115 -99
-4 0 -4 17 1 38 12 49 2 118 -25 166 -25 46 -79 76 -150 83 -44 4 -56 1 -86
-21 -19 -14 -51 -37 -71 -50 -123 -83 -211 -382 -154 -523 39 -97 156 -148
250 -109 70 30 167 162 205 279 8 26 25 46 57 68 24 17 46 29 48 27 2 -1 -1
-26 -6 -53 -13 -66 -2 -148 25 -188 29 -44 98 -77 162 -77 134 0 222 75 361
307 l55 92 49 -36 c27 -19 51 -39 54 -43 3 -5 -16 -28 -42 -52 -143 -130 -191
-214 -158 -278 22 -42 50 -54 130 -54 131 -1 245 80 281 200 16 54 8 103 -25
160 -27 45 -33 38 118 138 83 54 110 77 98 82 -26 10 -106 -22 -208 -82 l-94
-56 -42 47 c-24 26 -43 53 -43 60 0 19 81 126 121 159 19 16 58 40 87 52 28
13 52 29 52 35 0 6 -13 24 -29 40 -25 24 -38 29 -78 29 -26 0 -68 -9 -91 -20z
m-599 -210 c-78 -101 -76 -99 -54 -54 19 39 72 104 85 104 4 0 -11 -22 -31
-50z m561 10 c-10 -16 -20 -27 -22 -25 -5 5 26 55 34 55 3 0 -3 -13 -12 -30z
m-354 2 c0 -55 -104 -208 -161 -238 -27 -14 -29 -13 -29 4 0 34 71 163 115
208 44 46 75 57 75 26z m-584 -37 c13 -20 16 -44 12 -119 -4 -107 -16 -131
-53 -114 -26 12 -55 73 -55 116 0 43 18 93 42 119 27 29 34 29 54 -2z m-246
-62 c0 -5 -10 -19 -21 -33 l-21 -25 18 33 c18 32 24 38 24 25z m182 -232 c34
-11 36 -14 28 -36 -30 -80 -116 -195 -146 -195 -7 0 -21 11 -30 25 -14 21 -16
42 -11 113 3 48 11 103 17 122 7 19 14 41 16 49 3 10 17 3 47 -26 23 -22 59
-46 79 -52z m1034 -15 c8 -31 -24 -91 -73 -137 -94 -89 -141 -92 -96 -6 17 34
141 167 154 167 5 0 11 -11 15 -24z"/>
<path d="M5173 2784 c-241 -25 -286 -32 -278 -43 2 -5 19 -12 37 -16 33 -7 33
-7 8 -15 -18 -6 -20 -8 -7 -9 15 -1 262 24 431 43 35 4 55 18 56 38 0 22 -51
23 -247 2z"/>
<path d="M5770 2620 c-37 -5 -24 -6 39 -3 87 4 93 3 87 -14 -6 -14 -4 -15 5
-6 6 6 8 16 5 22 -8 12 -48 12 -136 1z"/>
<path d="M5455 2594 c-238 -24 -250 -26 -253 -52 -3 -18 1 -22 24 -22 34 0
394 37 484 50 65 9 64 9 -20 4 -47 -2 -118 -7 -157 -10 -123 -11 -84 12 50 29
157 19 66 20 -128 1z"/>
<path d="M4619 2567 l-185 -20 -24 -91 c-12 -50 -26 -96 -31 -101 -4 -6 -10
-31 -13 -57 -10 -78 -10 -79 -106 -91 -8 -1 -15 -11 -15 -22 0 -16 8 -21 43
-23 62 -5 50 -32 -15 -32 -36 0 -26 -32 14 -42 l31 -8 -49 -192 c-27 -105 -49
-197 -49 -203 0 -12 134 -9 215 4 39 6 39 7 51 64 6 32 13 59 15 62 5 4 188
25 223 25 23 0 28 -8 47 -70 24 -81 10 -76 171 -58 121 13 116 9 99 96 -7 37
-6 43 8 40 9 -2 17 -13 19 -26 2 -12 8 -22 14 -22 38 0 445 53 464 60 14 6 27
17 31 26 14 37 -10 38 -273 10 -142 -15 -262 -29 -266 -32 -8 -5 -32 45 -25
53 2 2 84 12 183 23 174 20 289 45 279 61 -12 19 -145 21 -308 4 -92 -9 -170
-15 -172 -13 -3 2 -11 33 -19 69 -8 35 -19 82 -25 104 -5 22 -9 40 -8 41 5 4
274 24 323 24 63 0 96 22 71 48 -13 13 -41 13 -213 3 -109 -6 -199 -9 -200 -8
-2 2 -5 18 -8 37 -2 19 -13 71 -24 115 -11 44 -23 99 -27 123 -8 50 17 48
-246 19z m21 -263 c10 -46 9 -58 -2 -65 -7 -5 -13 -14 -13 -21 0 -7 -8 -14
-18 -16 -16 -3 -18 1 -13 34 11 66 25 124 31 124 2 0 9 -25 15 -56z m8 -124
c27 0 10 -18 -24 -25 -41 -7 -49 -3 -40 21 4 11 13 14 29 10 12 -3 28 -6 35
-6z m52 -135 c0 -16 -16 -21 -102 -30 -58 -6 -64 -3 -52 29 9 23 154 24 154 1z"/>
<path d="M5803 2583 c9 -2 25 -2 35 0 9 3 1 5 -18 5 -19 0 -27 -2 -17 -5z"/>
<path d="M4985 2551 c-75 -6 -80 -8 -83 -30 l-4 -24 112 6 c115 6 150 18 129
43 -6 8 -26 13 -43 12 -17 -1 -67 -4 -111 -7z"/>
<path d="M4050 2516 l-85 -11 -6 -135 c-21 -433 -31 -721 -26 -726 6 -6 225
20 231 27 2 2 9 135 15 294 6 160 14 352 18 428 l6 137 -34 -1 c-19 -1 -72 -7
-119 -13z"/>
<path d="M3830 2494 c-8 -1 -45 -6 -82 -9 l-68 -7 -15 -51 c-15 -50 -80 -369
-106 -515 -7 -41 -16 -68 -20 -60 -3 7 -16 81 -29 163 -30 205 -70 428 -79
438 -5 4 -58 2 -120 -4 l-112 -12 5 -26 c73 -385 95 -494 128 -641 22 -96 41
-176 42 -178 2 -1 75 4 162 12 163 16 184 23 184 64 0 18 74 355 135 618 25
105 45 196 45 202 0 11 -34 14 -70 6z"/>
<path d="M5650 2443 c-19 -2 -105 -10 -190 -18 -233 -23 -254 -26 -239 -36 19
-12 5 -21 -41 -26 -32 -4 -40 -2 -40 11 0 10 -8 16 -22 15 -17 -1 -19 -2 -5
-6 21 -6 22 -19 1 -27 -39 -15 -139 -2 -127 17 3 6 1 7 -6 3 -9 -6 -9 -11 1
-23 11 -14 10 -15 -7 -10 -11 4 -27 2 -35 -3 -12 -8 -9 -10 13 -10 46 0 759
70 768 76 22 13 -3 49 -29 42 -4 0 -23 -3 -42 -5z"/>
<path d="M2991 2419 c-35 -4 -66 -10 -69 -13 -2 -3 -8 -92 -13 -198 -5 -106
-13 -298 -18 -427 -6 -129 -9 -237 -6 -239 2 -3 56 1 120 8 l115 12 0 47 c0
50 15 474 25 694 l6 127 -48 -1 c-26 -1 -77 -5 -112 -10z"/>
<path d="M5153 2385 c0 -8 4 -15 9 -15 4 0 8 7 8 15 0 8 -4 15 -8 15 -5 0 -9
-7 -9 -15z"/>
<path d="M5180 2390 c0 -5 5 -10 10 -10 6 0 10 5 10 10 0 6 -4 10 -10 10 -5 0
-10 -4 -10 -10z"/>
<path d="M2495 2373 c-55 -8 -102 -17 -104 -19 -3 -3 -11 -149 -37 -723 l-7
-153 39 6 c52 8 263 33 344 41 107 11 100 3 100 112 l0 95 -62 -6 c-35 -4 -87
-10 -117 -13 l-54 -6 6 164 c21 517 21 519 6 518 -8 -1 -59 -8 -114 -16z"/>
<path d="M1905 2336 c-160 -46 -233 -112 -277 -255 l-22 -69 -45 -6 c-24 -3
-45 -5 -47 -4 -1 2 -4 40 -5 85 l-4 82 63 7 c53 5 61 9 51 21 -9 10 -31 13
-74 12 -49 -2 -69 2 -91 18 -16 11 -44 25 -63 31 -68 23 -251 11 -452 -29
l-57 -11 -5 -47 c-4 -25 -9 -83 -13 -128 -6 -72 -9 -82 -28 -87 -21 -5 -203
-32 -426 -64 -88 -13 -115 -20 -115 -32 0 -12 14 -14 79 -12 46 2 83 8 91 15
7 7 82 23 166 35 85 13 169 25 187 28 l33 5 -3 -83 -3 -83 -131 -16 c-172 -21
-184 -24 -184 -51 0 -21 2 -21 123 -13 199 12 182 13 179 -14 -1 -14 -4 -26
-5 -28 -2 -1 -82 -12 -178 -23 -96 -11 -239 -29 -318 -40 -80 -11 -146 -20
-148 -20 -7 0 -2 -39 6 -45 5 -3 117 8 248 24 131 16 273 33 315 36 l78 7 -5
-28 c-5 -36 -16 -146 -19 -196 -2 -21 -4 -40 -7 -42 -2 -2 -61 -11 -131 -19
-70 -9 -139 -22 -155 -31 l-28 -14 28 -7 c66 -17 499 45 742 106 147 37 213
79 258 164 17 32 21 58 22 130 0 83 -2 93 -29 133 -31 45 -70 72 -106 72 -30
0 -24 16 15 40 19 11 42 32 52 45 14 19 31 26 76 31 l57 7 0 -30 c0 -48 -20
-93 -40 -93 -11 0 -22 -5 -25 -11 -4 -6 4 -9 22 -7 27 3 28 1 31 -47 8 -160
42 -259 107 -313 67 -54 180 -73 288 -48 230 54 318 202 320 536 1 104 -3 149
-17 198 -23 76 -78 142 -138 167 -58 23 -180 29 -243 11z m112 -191 c32 -22
43 -75 43 -201 0 -228 -37 -324 -127 -324 -69 0 -101 72 -91 206 3 47 5 49 38
55 l35 6 -35 2 c-27 1 -31 4 -20 11 13 8 13 10 -2 10 -14 0 -16 7 -11 38 3 20
7 38 8 40 2 2 34 7 71 10 54 6 69 11 72 25 3 15 -5 17 -67 17 -43 0 -71 4 -71
10 0 6 9 28 20 49 28 55 93 77 137 46z m-777 -65 c30 -30 28 -103 -4 -135 -32
-32 -136 -60 -136 -36 0 4 19 12 41 17 79 17 82 74 4 74 -40 0 -45 2 -45 23 0
41 12 66 34 70 53 10 87 6 106 -13z m19 -365 c18 -18 24 -35 25 -68 2 -73 -43
-108 -156 -122 l-58 -7 1 43 c1 24 4 73 8 109 l6 65 45 6 c64 8 101 0 129 -26z"/>
<path d="M1938 1913 c7 -3 16 -2 19 1 4 3 -2 6 -13 5 -11 0 -14 -3 -6 -6z"/>
<path d="M1928 1893 c7 -3 16 -2 19 1 4 3 -2 6 -13 5 -11 0 -14 -3 -6 -6z"/>
<path d="M5708 2223 c7 -3 16 -2 19 1 4 3 -2 6 -13 5 -11 0 -14 -3 -6 -6z"/>
<path d="M5598 2213 c7 -3 16 -2 19 1 4 3 -2 6 -13 5 -11 0 -14 -3 -6 -6z"/>
<path d="M5703 2193 c9 -2 25 -2 35 0 9 3 1 5 -18 5 -19 0 -27 -2 -17 -5z"/>
<path d="M5573 2183 c9 -2 23 -2 30 0 6 3 -1 5 -18 5 -16 0 -22 -2 -12 -5z"/>
<path d="M5503 2173 c9 -2 23 -2 30 0 6 3 -1 5 -18 5 -16 0 -22 -2 -12 -5z"/>
<path d="M630 2070 c-12 -8 -10 -10 10 -10 14 0 32 5 40 10 12 8 10 10 -10 10
-14 0 -32 -5 -40 -10z"/>
<path d="M480 2006 l-35 -10 29 -4 c16 -2 33 1 39 7 16 16 5 19 -33 7z"/>
<path d="M694 1999 c-3 -5 14 -9 37 -9 48 0 49 6 2 13 -18 3 -35 1 -39 -4z"/>
<path d="M1548 1863 c7 -3 16 -2 19 1 4 3 -2 6 -13 5 -11 0 -14 -3 -6 -6z"/>
<path d="M1488 1833 c6 -2 18 -2 25 0 6 3 1 5 -13 5 -14 0 -19 -2 -12 -5z"/>
<path d="M5325 1785 c-44 -7 -110 -15 -147 -19 -58 -7 -68 -10 -68 -27 0 -10
7 -19 15 -19 8 0 15 -9 15 -20 0 -11 6 -23 14 -26 8 -3 135 6 283 20 147 14
305 29 351 32 85 7 121 21 107 44 -6 9 -27 11 -84 6 -254 -24 -412 -35 -451
-35 l-45 1 55 9 c87 14 100 18 100 34 0 18 -31 18 -145 0z"/>
<path d="M4780 1583 c-19 -2 -152 -14 -295 -28 -143 -14 -325 -32 -405 -40
-80 -8 -237 -24 -350 -35 -507 -50 -795 -78 -1160 -116 -85 -8 -218 -22 -295
-29 -77 -8 -205 -21 -285 -29 -80 -9 -233 -25 -340 -36 -457 -48 -601 -72
-770 -130 l-85 -28 95 -1 c125 -1 267 14 985 104 1028 128 1642 203 2240 275
546 65 792 98 735 97 -19 0 -51 -2 -70 -4z"/>
<path d="M570 1365 c-128 -20 -188 -33 -160 -33 14 -1 95 10 180 22 85 13 135
24 110 24 -25 0 -83 -6 -130 -13z"/>
</g>
</svg>
